<mxfile host="app.diagrams.net" modified="2023-08-09T17:18:53.935Z" agent="Mozilla/5.0 (Windows NT 10.0; Win64; x64) AppleWebKit/537.36 (KHTML, like Gecko) Chrome/115.0.0.0 Safari/537.36" etag="hzPD6UNT-5u8dkWnu4ia" version="21.6.7" type="device">
  <diagram name="Страница — 1" id="vl8xpE9bw2vZpc14EVgm">
    <mxGraphModel dx="1194" dy="752" grid="1" gridSize="10" guides="1" tooltips="1" connect="1" arrows="1" fold="1" page="1" pageScale="1" pageWidth="827" pageHeight="1169" math="0" shadow="0">
      <root>
        <mxCell id="0" />
        <mxCell id="1" parent="0" />
        <mxCell id="NGl45Kfx3lGew7iLWRQ_-2" value="Начало" style="ellipse;whiteSpace=wrap;html=1;" vertex="1" parent="1">
          <mxGeometry x="330" y="40" width="120" height="80" as="geometry" />
        </mxCell>
        <mxCell id="NGl45Kfx3lGew7iLWRQ_-3" value="Конец" style="ellipse;whiteSpace=wrap;html=1;" vertex="1" parent="1">
          <mxGeometry x="354" y="710" width="120" height="80" as="geometry" />
        </mxCell>
        <mxCell id="NGl45Kfx3lGew7iLWRQ_-5" value="Есть подписка Premium?" style="rhombus;whiteSpace=wrap;html=1;" vertex="1" parent="1">
          <mxGeometry x="320" y="385" width="140" height="80" as="geometry" />
        </mxCell>
        <mxCell id="NGl45Kfx3lGew7iLWRQ_-7" value="" style="endArrow=classic;html=1;rounded=0;entryX=0.417;entryY=-0.017;entryDx=0;entryDy=0;entryPerimeter=0;" edge="1" parent="1" source="NGl45Kfx3lGew7iLWRQ_-5" target="NGl45Kfx3lGew7iLWRQ_-11">
          <mxGeometry width="50" height="50" relative="1" as="geometry">
            <mxPoint x="460" y="325" as="sourcePoint" />
            <mxPoint x="549.96" y="365" as="targetPoint" />
          </mxGeometry>
        </mxCell>
        <mxCell id="NGl45Kfx3lGew7iLWRQ_-8" value="&amp;nbsp;Нет&amp;nbsp;" style="edgeLabel;html=1;align=center;verticalAlign=middle;resizable=0;points=[];" vertex="1" connectable="0" parent="NGl45Kfx3lGew7iLWRQ_-7">
          <mxGeometry x="0.0169" y="-2" relative="1" as="geometry">
            <mxPoint as="offset" />
          </mxGeometry>
        </mxCell>
        <mxCell id="NGl45Kfx3lGew7iLWRQ_-9" value="Создать список&lt;br style=&quot;border-color: var(--border-color);&quot;&gt;из 3х&lt;br style=&quot;border-color: var(--border-color);&quot;&gt;пользователей" style="rounded=0;whiteSpace=wrap;html=1;" vertex="1" parent="1">
          <mxGeometry x="330" y="170" width="120" height="60" as="geometry" />
        </mxCell>
        <mxCell id="NGl45Kfx3lGew7iLWRQ_-11" value="&lt;span style=&quot;color: rgb(0, 0, 0); font-family: Helvetica; font-size: 12px; font-style: normal; font-variant-ligatures: normal; font-variant-caps: normal; font-weight: 400; letter-spacing: normal; orphans: 2; text-align: center; text-indent: 0px; text-transform: none; widows: 2; word-spacing: 0px; -webkit-text-stroke-width: 0px; background-color: rgb(251, 251, 251); text-decoration-thickness: initial; text-decoration-style: initial; text-decoration-color: initial; float: none; display: inline !important;&quot;&gt;Показать&lt;/span&gt;&lt;br style=&quot;border-color: var(--border-color); color: rgb(0, 0, 0); font-family: Helvetica; font-size: 12px; font-style: normal; font-variant-ligatures: normal; font-variant-caps: normal; font-weight: 400; letter-spacing: normal; orphans: 2; text-align: center; text-indent: 0px; text-transform: none; widows: 2; word-spacing: 0px; -webkit-text-stroke-width: 0px; background-color: rgb(251, 251, 251); text-decoration-thickness: initial; text-decoration-style: initial; text-decoration-color: initial;&quot;&gt;&lt;span style=&quot;color: rgb(0, 0, 0); font-family: Helvetica; font-size: 12px; font-style: normal; font-variant-ligatures: normal; font-variant-caps: normal; font-weight: 400; letter-spacing: normal; orphans: 2; text-align: center; text-indent: 0px; text-transform: none; widows: 2; word-spacing: 0px; -webkit-text-stroke-width: 0px; background-color: rgb(251, 251, 251); text-decoration-thickness: initial; text-decoration-style: initial; text-decoration-color: initial; float: none; display: inline !important;&quot;&gt;рекламу&lt;/span&gt;" style="rounded=0;whiteSpace=wrap;html=1;" vertex="1" parent="1">
          <mxGeometry x="340" y="510" width="120" height="60" as="geometry" />
        </mxCell>
        <mxCell id="NGl45Kfx3lGew7iLWRQ_-13" value="Для пользователя" style="strokeWidth=2;html=1;shape=mxgraph.flowchart.loop_limit;whiteSpace=wrap;" vertex="1" parent="1">
          <mxGeometry x="340" y="260" width="100" height="60" as="geometry" />
        </mxCell>
        <mxCell id="NGl45Kfx3lGew7iLWRQ_-14" value="" style="endArrow=classic;html=1;rounded=0;entryX=0.5;entryY=0;entryDx=0;entryDy=0;" edge="1" parent="1" source="NGl45Kfx3lGew7iLWRQ_-13" target="NGl45Kfx3lGew7iLWRQ_-5">
          <mxGeometry width="50" height="50" relative="1" as="geometry">
            <mxPoint x="270" y="390" as="sourcePoint" />
            <mxPoint x="320" y="340" as="targetPoint" />
          </mxGeometry>
        </mxCell>
        <mxCell id="NGl45Kfx3lGew7iLWRQ_-16" value="" style="endArrow=classic;html=1;rounded=0;entryX=0.01;entryY=0.383;entryDx=0;entryDy=0;entryPerimeter=0;" edge="1" parent="1" target="NGl45Kfx3lGew7iLWRQ_-13">
          <mxGeometry width="50" height="50" relative="1" as="geometry">
            <mxPoint x="220" y="283" as="sourcePoint" />
            <mxPoint x="180" y="630" as="targetPoint" />
          </mxGeometry>
        </mxCell>
        <mxCell id="NGl45Kfx3lGew7iLWRQ_-19" value="" style="endArrow=classic;html=1;rounded=0;exitX=0;exitY=0.5;exitDx=0;exitDy=0;" edge="1" parent="1" source="NGl45Kfx3lGew7iLWRQ_-11">
          <mxGeometry width="50" height="50" relative="1" as="geometry">
            <mxPoint x="390" y="565" as="sourcePoint" />
            <mxPoint x="230" y="540" as="targetPoint" />
          </mxGeometry>
        </mxCell>
        <mxCell id="NGl45Kfx3lGew7iLWRQ_-20" value="" style="endArrow=classic;html=1;rounded=0;" edge="1" parent="1" source="NGl45Kfx3lGew7iLWRQ_-5">
          <mxGeometry width="50" height="50" relative="1" as="geometry">
            <mxPoint x="354" y="424.5" as="sourcePoint" />
            <mxPoint x="224" y="424.5" as="targetPoint" />
          </mxGeometry>
        </mxCell>
        <mxCell id="NGl45Kfx3lGew7iLWRQ_-21" value="&amp;nbsp;Да&amp;nbsp;" style="edgeLabel;html=1;align=center;verticalAlign=middle;resizable=0;points=[];" vertex="1" connectable="0" parent="NGl45Kfx3lGew7iLWRQ_-20">
          <mxGeometry x="-0.0378" y="2" relative="1" as="geometry">
            <mxPoint as="offset" />
          </mxGeometry>
        </mxCell>
        <mxCell id="NGl45Kfx3lGew7iLWRQ_-22" value="" style="endArrow=classic;html=1;rounded=0;" edge="1" parent="1" source="NGl45Kfx3lGew7iLWRQ_-13">
          <mxGeometry width="50" height="50" relative="1" as="geometry">
            <mxPoint x="530" y="360" as="sourcePoint" />
            <mxPoint x="580" y="290" as="targetPoint" />
          </mxGeometry>
        </mxCell>
        <mxCell id="NGl45Kfx3lGew7iLWRQ_-23" value="" style="endArrow=classic;html=1;rounded=0;entryX=0.575;entryY=-0.025;entryDx=0;entryDy=0;entryPerimeter=0;" edge="1" parent="1" target="NGl45Kfx3lGew7iLWRQ_-3">
          <mxGeometry width="50" height="50" relative="1" as="geometry">
            <mxPoint x="520" y="690" as="sourcePoint" />
            <mxPoint x="570" y="640" as="targetPoint" />
          </mxGeometry>
        </mxCell>
      </root>
    </mxGraphModel>
  </diagram>
</mxfile>
